<svg xmlns="http://www.w3.org/2000/svg" width="131" height="132" viewBox="0 0 131 132" fill="none">
  <path d="M65.5 30L34 47.5V84.5L65.5 100.5L97 83.5L96 46.5L65.5 30Z" fill="url(#paint0_linear_56_15)" fill-opacity="0.83" stroke="url(#paint1_angular_56_15)"/>
  <g filter="url(#filter0_d_56_15)">
    <path d="M50 81.5V66V50.5H81V81.5H50Z" fill="#00FFC0"/>
    <path d="M57.6262 58.2239C57.3782 57.8622 57.1122 57.4747 57.0321 57.3662L56.8926 57.1647L62.0257 57.1673L62.8782 58.4099C63.3457 59.0944 63.8702 59.8591 64.0432 60.1097C64.2137 60.3577 64.702 61.0681 65.1257 61.6855L65.1913 61.7812C65.5894 62.3614 65.9477 62.8834 66.004 62.9643C66.0563 63.0393 66.1626 63.1903 66.2542 63.3205L66.2907 63.3724C66.4328 63.5739 66.4742 63.6204 66.4974 63.592C66.5155 63.5739 66.903 63.1219 67.3602 62.5897C67.8175 62.0575 68.422 61.3523 68.7036 61.0268C68.9852 60.6987 69.6232 59.9547 70.1244 59.3734C70.6256 58.7896 71.2352 58.0818 71.4807 57.7976C71.7261 57.5134 71.9482 57.2551 72.0232 57.1621L73.5292 57.1776L71.9534 59.0118C71.0854 60.0193 69.9978 61.2877 69.5328 61.825C69.0913 62.3406 68.4142 63.127 67.9918 63.6176L67.9337 63.685C67.5152 64.1707 67.1691 64.5814 67.1639 64.5969C67.1587 64.615 67.2207 64.7313 67.306 64.8553C67.3887 64.9819 67.6728 65.3952 67.9363 65.7801C68.1998 66.1624 68.4633 66.5474 68.5227 66.6326C68.5822 66.7179 69.166 67.5652 69.8196 68.5184C70.4706 69.4691 71.0828 70.3629 71.1784 70.4999C71.274 70.6394 71.5582 71.0527 71.8087 71.4169C72.0593 71.7838 72.4442 72.3418 72.6612 72.6569C72.8782 72.9747 73.1986 73.4397 73.3717 73.6903C73.5447 73.9434 73.7798 74.287 74.1027 74.7572L68.9748 74.7546L68.4582 74.0003C68.174 73.5869 67.7271 72.9334 67.4636 72.5484C67.2001 72.1661 66.4845 71.125 65.8748 70.2364C65.2652 69.3477 64.6632 68.4694 64.5341 68.2808C64.4049 68.0922 64.2912 67.9424 64.2835 67.9449C64.2732 67.9475 63.9373 68.335 63.5343 68.8026C63.1313 69.2702 62.4881 70.0219 62.1032 70.4689C61.7182 70.9158 61.0672 71.6727 60.6591 72.148C60.2483 72.6234 59.5792 73.4061 58.4219 74.7572H56.8977L57.758 73.7574C58.2282 73.2098 58.9463 72.3754 59.3493 71.9052C59.7549 71.435 60.4369 70.6394 60.8683 70.1382C61.2997 69.6396 62.0076 68.8129 62.4442 68.304C62.8807 67.7977 63.3225 67.2862 63.4258 67.1674C63.5421 67.0356 63.6067 66.9426 63.5963 66.9219C63.586 66.9064 63.431 66.6791 63.2527 66.4208C63.0745 66.1624 62.7619 65.7026 62.5552 65.4029C62.3486 65.1007 62.0179 64.6176 61.819 64.3283C61.6201 64.0389 61.2662 63.5249 61.0311 63.1839C60.796 62.8429 60.5118 62.4269 60.3956 62.259C60.2819 62.0937 59.7136 61.2644 59.1323 60.4197C58.5511 59.5749 57.8742 58.5855 57.6262 58.2239Z" fill="black"/>
    <path d="M59.7779 59.4759C59.3517 58.8663 58.9926 58.3496 58.9797 58.3315C58.9642 58.3057 59.1941 58.3005 61.2995 58.3134L61.749 58.9593C61.997 59.3158 62.5473 60.0985 62.9684 60.703C63.3894 61.3075 64.2342 62.5165 64.8464 63.3897C65.4561 64.2629 66.1045 65.1929 66.2879 65.4564C66.4714 65.7199 66.7142 66.0686 66.8304 66.2314C66.9467 66.3941 67.2283 66.7971 67.4556 67.1226C67.6829 67.4481 68.3262 68.3729 68.8894 69.1764C69.4499 69.9798 70.1629 71.0028 70.4755 71.4497C70.7881 71.8966 71.2634 72.5734 71.5269 72.9558C71.793 73.3355 72.01 73.6507 72.01 73.6584C72.01 73.6662 71.4908 73.6714 69.6979 73.6714L69.1709 72.917C68.879 72.5011 68.0601 71.3283 67.3523 70.313C66.6419 69.2978 65.6757 67.9131 65.2029 67.2389C64.7328 66.5646 63.8829 65.3504 63.3171 64.5393C62.7514 63.7281 61.8989 62.5088 61.4209 61.8268C60.9456 61.1448 60.2042 60.0856 59.7779 59.4759Z" fill="#00FFC0"/>
  </g>
  <defs>
    <filter id="filter0_d_56_15" x="0" y="0.5" width="131" height="131" filterUnits="userSpaceOnUse" color-interpolation-filters="sRGB">
      <feFlood flood-opacity="0" result="BackgroundImageFix"/>
      <feColorMatrix in="SourceAlpha" type="matrix" values="0 0 0 0 0 0 0 0 0 0 0 0 0 0 0 0 0 0 127 0" result="hardAlpha"/>
      <feOffset/>
      <feGaussianBlur stdDeviation="25"/>
      <feComposite in2="hardAlpha" operator="out"/>
      <feColorMatrix type="matrix" values="0 0 0 0 0 0 0 0 0 1 0 0 0 0 0.752066 0 0 0 0.25 0"/>
      <feBlend mode="normal" in2="BackgroundImageFix" result="effect1_dropShadow_56_15"/>
      <feBlend mode="normal" in="SourceGraphic" in2="effect1_dropShadow_56_15" result="shape"/>
    </filter>
    <linearGradient id="paint0_linear_56_15" x1="82" y1="39.5" x2="34" y2="84.5" gradientUnits="userSpaceOnUse">
      <stop stop-color="#00F6BE" stop-opacity="0.35"/>
      <stop offset="1" stop-color="#05F7BB" stop-opacity="0.6"/>
    </linearGradient>
    <radialGradient id="paint1_angular_56_15" cx="0" cy="0" r="1" gradientUnits="userSpaceOnUse" gradientTransform="translate(65.5 65.25) rotate(-90.8013) scale(35.7535 31.9499)">
      <stop stop-color="#00A896" stop-opacity="0.83"/>
      <stop offset="1" stop-color="#157F74" stop-opacity="0"/>
    </radialGradient>
  </defs>
</svg>