<svg xmlns="http://www.w3.org/2000/svg" width="65" height="73" viewBox="0 0 65 73" fill="none">
  <path d="M32.5 1L1 18.5V55.5L32.5 71.5L64 54.5L63 17.5L32.5 1Z" fill="url(#paint0_linear_56_15)" fill-opacity="0.83" stroke="url(#paint1_angular_56_15)"/>
  <path d="M32.5417 25.0028C32.3828 25.0056 32.1253 25.0056 31.9689 25.0028C31.8124 25.0014 31.943 25 32.2584 25C32.5737 25 32.7006 25.0014 32.5417 25.0028Z" fill="#FF0000" fill-opacity="0.1"/>
  <path d="M31.0755 25.0153C31.0521 25.0181 31.0078 25.0181 30.977 25.0153C30.9462 25.0125 30.9659 25.0097 31.0201 25.0097C31.0743 25.0097 31.0989 25.0125 31.0755 25.0153Z" fill="#FF0000" fill-opacity="0.7"/>
  <path d="M31.0635 25.0187L31.1596 25.015C31.2113 25.0125 31.3554 25.01 31.7041 25.0062V25.2064H31.0635V25.0187Z" fill="#FF0000"/>
  <path d="M31.7041 25.2064L31.7038 25.1063L31.7041 25.0062H32.8372V25.2064H33.527V25.0187H34.377V25.2189H34.8821V25.0313H35.1901V25.2314H35.6705V25.0438H35.8307V25.244H36.2865V25.0563H36.4097V25.2565H36.8408V25.1626C36.8408 25.1088 36.8457 25.0688 36.8531 25.0688C36.8605 25.0688 36.8655 25.1101 36.8655 25.269H37.2966V25.1751C37.2966 25.1001 37.3003 25.0813 37.3151 25.0813C37.3299 25.0813 37.3336 25.1001 37.3336 25.2752L37.8165 25.2915C38.0826 25.3003 38.5002 25.3153 38.7441 25.3253C38.988 25.3365 39.365 25.3528 39.5818 25.3628C39.7986 25.3741 40.1263 25.3903 40.3086 25.4004C40.4909 25.4116 40.8186 25.4304 41.0354 25.4441C41.2522 25.4579 41.6095 25.4842 41.83 25.5005C42.0505 25.518 42.3769 25.5467 42.5568 25.5643C42.7367 25.5805 42.9991 25.6093 43.142 25.6268C43.2849 25.6431 43.4783 25.6694 43.5731 25.6831C43.668 25.6969 43.8195 25.7219 43.9094 25.7394C43.9981 25.7557 44.088 25.7695 44.109 25.7695C44.1299 25.7695 44.1472 25.7732 44.1496 25.7795C44.1509 25.7845 44.1965 25.802 44.2507 25.8182C44.3049 25.8345 44.3689 25.8508 44.3923 25.8545C44.4157 25.857 44.4379 25.8645 44.4416 25.8695C44.4453 25.8733 44.4958 25.8933 44.5562 25.9108C44.6153 25.9296 44.6794 25.9446 44.7003 25.9446C44.7212 25.9446 44.7373 25.9509 44.7373 25.9609C44.7373 25.9684 44.7693 25.9884 44.8075 26.0034C44.8469 26.0197 44.8863 26.0322 44.8949 26.0322C44.9023 26.0322 44.9183 26.041 44.9282 26.051C44.9381 26.061 44.9664 26.0697 44.9898 26.0697C45.0194 26.0697 45.0329 26.076 45.0329 26.0885C45.0329 26.0998 45.0662 26.1235 45.113 26.1448C45.1573 26.1648 45.2041 26.1823 45.2177 26.1823C45.2312 26.1823 45.2423 26.1898 45.2423 26.1986C45.2411 26.2061 45.2596 26.2224 45.2818 26.2324C45.3039 26.2424 45.3298 26.2574 45.3384 26.2662C45.3458 26.2749 45.3618 26.2824 45.3717 26.2824C45.3815 26.2824 45.3902 26.2874 45.3902 26.2949C45.3902 26.3025 45.4037 26.31 45.421 26.3137C45.4382 26.3175 45.4518 26.325 45.4518 26.3325C45.4518 26.34 45.4604 26.345 45.4702 26.345C45.4801 26.345 45.4887 26.35 45.4887 26.3575C45.4887 26.365 45.4973 26.37 45.5072 26.37C45.517 26.37 45.5257 26.375 45.5257 26.3825C45.5257 26.39 45.5343 26.395 45.5441 26.395C45.554 26.395 45.5626 26.4 45.5626 26.4076C45.5626 26.4151 45.5712 26.4201 45.5811 26.4201C45.591 26.4201 45.5996 26.4251 45.5996 26.4326C45.5996 26.4401 45.6082 26.4451 45.6181 26.4451C45.6279 26.4451 45.639 26.4538 45.6427 26.4639C45.6464 26.4739 45.6575 26.4826 45.6673 26.4826C45.6772 26.4826 45.6883 26.4914 45.692 26.5014C45.6957 26.5114 45.7068 26.5202 45.7166 26.5202C45.7265 26.5202 45.7376 26.5289 45.7412 26.5389C45.7449 26.5489 45.7585 26.5577 45.772 26.5577C45.7868 26.5577 45.7991 26.5677 45.8028 26.5827C45.8069 26.5994 45.8193 26.6077 45.8398 26.6077C45.8607 26.6077 45.8706 26.614 45.8706 26.6303C45.8706 26.6415 45.8768 26.659 45.8854 26.6678C45.894 26.6766 45.9137 26.6828 45.9297 26.6828C45.947 26.6828 45.9568 26.6903 45.9568 26.7053C45.9568 26.7166 45.9692 26.7391 45.9852 26.7554C46.0086 26.7791 46.0246 26.7829 46.1909 26.7829V26.8742C46.1909 26.9506 46.1958 26.9693 46.2192 26.9931C46.234 27.0081 46.2586 27.0206 46.2747 27.0206C46.2968 27.0206 46.3018 27.0281 46.3055 27.0619C46.3067 27.0894 46.3165 27.1057 46.3363 27.1145C46.351 27.122 46.3634 27.137 46.3634 27.1495C46.3634 27.1608 46.3732 27.1783 46.3855 27.187C46.3979 27.1945 46.4114 27.2121 46.4163 27.2246C46.4213 27.2358 46.4336 27.2458 46.4434 27.2458C46.4533 27.2458 46.4619 27.2571 46.4619 27.2709C46.4619 27.2846 46.4705 27.2959 46.4804 27.2959C46.4902 27.2959 46.4989 27.3071 46.4989 27.3209C46.4989 27.3347 46.5038 27.3459 46.5112 27.3459C46.5186 27.3459 46.5235 27.3547 46.5235 27.3647C46.5235 27.3747 46.5321 27.386 46.542 27.3897C46.5518 27.3935 46.5605 27.4047 46.5605 27.4147C46.5605 27.4248 46.5654 27.4335 46.5728 27.4335C46.5802 27.4335 46.5851 27.4423 46.5851 27.4523C46.5851 27.4623 46.59 27.471 46.5974 27.471C46.6048 27.471 46.6097 27.4798 46.6097 27.4898C46.6097 27.4998 46.6147 27.5086 46.6221 27.5086C46.6294 27.5086 46.6344 27.5173 46.6344 27.5274C46.6344 27.5374 46.6393 27.5461 46.6467 27.5461C46.6541 27.5461 46.659 27.5549 46.659 27.5649C46.659 27.5749 46.6664 27.5912 46.675 27.5999C46.6849 27.6074 46.696 27.6274 46.6997 27.6437C46.7046 27.6587 46.7169 27.6712 46.7268 27.6712C46.7366 27.6712 46.7452 27.6825 46.7452 27.6963C46.7452 27.71 46.7526 27.735 46.7613 27.7526C46.7711 27.7751 46.7859 27.7838 46.8105 27.7838C46.8426 27.7838 46.8438 27.7863 46.8438 27.8527C46.8438 27.9127 46.8463 27.9215 46.8684 27.9215C46.8894 27.9215 46.8931 27.9302 46.8931 27.9715C46.8931 27.999 46.9005 28.0353 46.9091 28.0528C46.9165 28.0704 46.9276 28.0841 46.9337 28.0841C46.9387 28.0841 46.9423 28.0941 46.9423 28.1054C46.9423 28.1179 46.9571 28.1667 46.9756 28.2155C46.9941 28.2643 47.0138 28.3043 47.0187 28.3068C47.0249 28.3081 47.0286 28.3193 47.0286 28.3319C47.0286 28.3431 47.0384 28.3832 47.0508 28.4194C47.0618 28.4557 47.0754 28.4845 47.0816 28.4845C47.0865 28.4845 47.0902 28.5045 47.0902 28.5283C47.0902 28.5521 47.0951 28.5721 47.1025 28.5721C47.1099 28.5721 47.1148 28.5846 47.1148 28.5996C47.1148 28.6159 47.1394 28.7385 47.169 28.8724C47.1986 29.0062 47.2466 29.2314 47.2737 29.3728C47.3008 29.5142 47.3366 29.7106 47.3538 29.8107C47.371 29.9108 47.4043 30.1223 47.4289 30.2799C47.4524 30.4376 47.4905 30.7253 47.5139 30.918C47.5386 31.1107 47.5743 31.4348 47.594 31.6375C47.615 31.8401 47.6433 32.1417 47.6556 32.3068C47.6692 32.472 47.6889 32.731 47.6987 32.8824C47.7098 33.0338 47.7258 33.3203 47.7369 33.5205C47.7468 33.7207 47.7603 34.0209 47.7677 34.1898C47.7739 34.3588 47.78 34.5652 47.78 34.8029H47.9771V34.9906H47.7924V35.4911H47.9895V36.3168H47.7924V36.7923H47.9771V36.9674H47.7862L47.7763 37.2953C47.7714 37.4767 47.7591 37.802 47.7492 38.0184C47.7394 38.2349 47.7221 38.5539 47.7123 38.7253L47.7073 38.8035C47.6968 38.9677 47.6838 39.1704 47.6753 39.2884C47.6655 39.426 47.6458 39.6712 47.6322 39.8326L47.6297 39.8598C47.6148 40.0231 47.5918 40.2735 47.5755 40.4332C47.5595 40.6021 47.5287 40.8811 47.5078 41.0525C47.4881 41.2239 47.4523 41.5067 47.4277 41.6781C47.4043 41.8495 47.36 42.1435 47.3292 42.3287C47.2984 42.5139 47.2442 42.8192 47.2072 43.0044C47.1702 43.1895 47.1321 43.3709 47.121 43.4047C47.1111 43.4398 47.1025 43.4823 47.1025 43.5023C47.1025 43.5211 47.0988 43.5361 47.0939 43.5361C47.0877 43.5361 47.0766 43.5574 47.0692 43.5824C47.0606 43.6087 47.0532 43.6487 47.0532 43.6712C47.0532 43.695 47.0471 43.7113 47.0384 43.7113C47.0298 43.7113 47.0126 43.7375 47.0002 43.7701C46.9892 43.8039 46.9793 43.8401 46.9793 43.8527C46.9793 43.8639 46.9756 43.8739 46.9707 43.8739C46.9645 43.8739 46.9534 43.8877 46.946 43.9052C46.9374 43.9227 46.93 43.9477 46.93 43.9615C46.93 43.9753 46.9263 43.9865 46.9214 43.9865C46.9152 43.9865 46.8844 44.0441 46.85 44.1141C46.8167 44.1855 46.781 44.2505 46.7736 44.2593C46.765 44.2668 46.7539 44.2868 46.7489 44.3031C46.7452 44.3181 46.7342 44.3381 46.7243 44.3469C46.7157 44.3544 46.7083 44.3706 46.7083 44.3806C46.7083 44.3907 46.7034 44.3994 46.696 44.3994C46.6886 44.3994 46.6812 44.4132 46.6775 44.4307C46.6738 44.4482 46.6664 44.462 46.659 44.462C46.6516 44.462 46.6467 44.4707 46.6467 44.4807C46.6467 44.4907 46.6418 44.4995 46.6344 44.4995C46.627 44.4995 46.6221 44.5083 46.6221 44.5183C46.6221 44.5283 46.6171 44.537 46.6097 44.537C46.6023 44.537 46.5974 44.5458 46.5974 44.5558C46.5974 44.5658 46.5925 44.5746 46.5851 44.5746C46.5777 44.5746 46.5728 44.5833 46.5728 44.5933C46.5728 44.6034 46.5642 44.6146 46.5543 44.6184C46.5444 44.6221 46.5358 44.6334 46.5358 44.6434C46.5358 44.6534 46.5272 44.6647 46.5173 44.6684C46.5075 44.6722 46.4989 44.6834 46.4989 44.6934C46.4989 44.7034 46.4939 44.7122 46.4865 44.7122C46.4792 44.7122 46.4742 44.7235 46.4742 44.7372C46.4742 44.7522 46.4644 44.7648 46.4496 44.7685C46.436 44.7723 46.4249 44.7848 46.4249 44.7973C46.4249 44.8085 46.4126 44.8248 46.3979 44.8311C46.3818 44.8373 46.3683 44.8561 46.3671 44.8724C46.3646 44.8874 46.356 44.8999 46.3486 44.8999C46.34 44.8999 46.3227 44.9099 46.3104 44.9224C46.2981 44.9349 46.2882 44.9612 46.2894 44.985C46.2894 45.02 46.2857 45.025 46.2562 45.025C46.2303 45.025 46.1995 45.0475 46.1318 45.1163C46.064 45.1852 46.0431 45.2152 46.0431 45.2415C46.0431 45.2715 46.0381 45.2752 46.0036 45.2752C45.9815 45.2752 45.9531 45.2852 45.9408 45.2978C45.9285 45.309 45.9186 45.3265 45.9199 45.3353C45.9199 45.3428 45.9076 45.3516 45.8928 45.3541C45.8768 45.3553 45.8595 45.3691 45.8521 45.3853C45.8447 45.4004 45.8299 45.4129 45.8189 45.4129C45.8065 45.4129 45.7942 45.4241 45.7905 45.4379C45.7868 45.4529 45.7745 45.4629 45.7597 45.4629C45.7462 45.4629 45.7351 45.4692 45.7351 45.4754C45.7351 45.4817 45.7265 45.4879 45.7166 45.4879C45.7068 45.4879 45.6957 45.4967 45.692 45.5067C45.6883 45.5167 45.6772 45.5255 45.6673 45.5255C45.6575 45.5255 45.6464 45.5342 45.6427 45.5442C45.639 45.5542 45.6279 45.563 45.6181 45.563C45.6082 45.563 45.5996 45.5693 45.5996 45.5755C45.5996 45.5818 45.591 45.588 45.5811 45.588C45.5712 45.588 45.5626 45.5943 45.5626 45.6005C45.5626 45.6068 45.554 45.6131 45.5441 45.6131C45.5343 45.6131 45.5257 45.6193 45.5257 45.6256C45.5257 45.6318 45.517 45.6381 45.5072 45.6381C45.4973 45.6381 45.4887 45.6443 45.4887 45.6506C45.4887 45.6568 45.4752 45.6656 45.4579 45.6694C45.4407 45.6731 45.4271 45.6819 45.4271 45.6881C45.4271 45.6944 45.4185 45.7006 45.4086 45.7006C45.3988 45.7006 45.3902 45.7094 45.3902 45.7194C45.3902 45.7294 45.3791 45.7382 45.3655 45.7382C45.352 45.7382 45.3323 45.7407 45.3224 45.7444C45.3125 45.7482 45.3039 45.7594 45.3039 45.7694C45.3039 45.7795 45.2928 45.7882 45.2793 45.7882C45.2657 45.7882 45.198 45.817 45.129 45.852C45.0588 45.8871 45.0009 45.9208 44.9996 45.9271C44.9972 45.9333 44.9824 45.9384 44.9664 45.9384C44.9491 45.9384 44.9282 45.9471 44.9171 45.9571C44.9073 45.9671 44.8875 45.9759 44.874 45.9759C44.8592 45.9759 44.8481 45.9821 44.8481 45.9884C44.8481 45.9947 44.8346 46.0009 44.8173 46.0009C44.8001 46.0009 44.7865 46.0072 44.7865 46.0134C44.7865 46.0197 44.7767 46.0259 44.7656 46.0259C44.7533 46.0259 44.6855 46.046 44.6141 46.0697C44.5426 46.0948 44.4317 46.1273 44.3677 46.1448C44.3036 46.1611 44.1509 46.1936 44.0289 46.2186C43.907 46.2424 43.6766 46.2812 43.5177 46.3062C43.3588 46.33 43.0619 46.37 42.8586 46.3938C42.6554 46.4188 42.3425 46.4526 42.1626 46.4689C41.9827 46.4864 41.6945 46.5114 41.522 46.5252C41.3495 46.5389 41.044 46.5614 40.8445 46.5765C40.6449 46.5902 40.2815 46.6127 40.0376 46.6265C39.7937 46.6403 39.4081 46.6603 39.1814 46.6703C38.9547 46.6803 38.5556 46.6978 38.2945 46.7078C38.0333 46.7178 37.6686 46.7303 37.1488 46.7454V46.843C37.1488 46.9305 37.1463 46.9393 37.1242 46.9393C37.102 46.9393 37.0995 46.9305 37.0995 46.7516H36.6684V46.9518H36.5821V46.7641H36.1386V46.9643H35.8923V46.7766H35.4241V46.9768H35.0053V46.7892H34.4879V46.9893H31.3219V46.7892H30.7922V46.9768H30.3487V46.7766H29.8683V46.9643H29.6342V46.7641H29.1908V46.9518H29.0552V46.7516H28.6118V46.8455C28.6118 46.9305 28.6093 46.9393 28.5871 46.9393C28.565 46.9393 28.5625 46.9305 28.5625 46.7391H28.1436V46.8329C28.1436 46.908 28.1399 46.9268 28.1252 46.9268C28.1104 46.9268 28.1067 46.908 28.1067 46.7328L27.6053 46.7166C27.3281 46.7078 26.9056 46.6928 26.6654 46.6828C26.4252 46.6728 26.0457 46.6553 25.8215 46.6453C25.5973 46.634 25.2179 46.614 24.9777 46.6015C24.7375 46.5877 24.4098 46.5677 24.2509 46.5577C24.0919 46.5464 23.8111 46.5277 23.6288 46.5139C23.4464 46.4989 23.1693 46.4776 23.0128 46.4638C22.8564 46.4501 22.6161 46.4276 22.4769 46.4138C22.3377 46.4 22.0803 46.3713 21.9041 46.35C21.7279 46.33 21.4705 46.2949 21.3313 46.2749C21.1921 46.2537 20.99 46.2199 20.8816 46.1999C20.7732 46.1786 20.6414 46.1511 20.5897 46.1373C20.5367 46.1248 20.4714 46.1135 20.4443 46.1135C20.4135 46.1135 20.395 46.1073 20.395 46.0985C20.395 46.0897 20.3741 46.0747 20.3495 46.0672C20.3236 46.0585 20.2928 46.051 20.2817 46.051C20.2694 46.051 20.2583 46.0472 20.2571 46.041C20.2546 46.0359 20.2152 46.0159 20.1671 45.9972C20.1191 45.9784 20.0735 45.9634 20.0661 45.9634C20.0575 45.9634 20.0415 45.9546 20.0316 45.9446C20.0205 45.9334 19.991 45.9258 19.9577 45.9258C19.9134 45.9258 19.9023 45.9221 19.9023 45.9046C19.9023 45.8908 19.8813 45.8708 19.8468 45.8545C19.816 45.8383 19.7742 45.8258 19.7544 45.8258C19.7273 45.8258 19.7175 45.8195 19.7175 45.8045C19.7187 45.7907 19.7015 45.7745 19.6781 45.7632C19.6559 45.7532 19.63 45.7382 19.6226 45.7294C19.614 45.7207 19.598 45.7131 19.5881 45.7131C19.5783 45.7131 19.5697 45.7069 19.5697 45.7006C19.5697 45.6944 19.5561 45.6856 19.5389 45.6819C19.5216 45.6781 19.5081 45.6694 19.5081 45.6631C19.5081 45.6568 19.4994 45.6506 19.4896 45.6506C19.4797 45.6506 19.4711 45.6443 19.4711 45.6381C19.4711 45.6318 19.4625 45.6256 19.4526 45.6256C19.4428 45.6256 19.4342 45.6193 19.4342 45.6131C19.4342 45.6068 19.4255 45.6005 19.4157 45.6005C19.4058 45.6005 19.3972 45.5943 19.3972 45.588C19.3972 45.5818 19.3886 45.5755 19.3787 45.5755C19.3689 45.5755 19.3602 45.5693 19.3602 45.563C19.3602 45.5567 19.3516 45.5505 19.3418 45.5505C19.3319 45.5505 19.3208 45.5417 19.3171 45.5317C19.3134 45.5217 19.3023 45.513 19.2925 45.513C19.2826 45.513 19.2715 45.5042 19.2678 45.4942C19.2642 45.4842 19.2531 45.4754 19.2432 45.4754C19.2334 45.4754 19.2223 45.4667 19.2186 45.4567C19.2149 45.4466 19.2013 45.4379 19.1878 45.4379C19.173 45.4379 19.1607 45.4279 19.157 45.4129C19.1529 45.3962 19.1406 45.3878 19.12 45.3878C19.0966 45.3878 19.088 45.3803 19.0868 45.3603C19.0843 45.3378 19.0744 45.3303 19.0436 45.329C19.0104 45.3253 19.003 45.3203 19.003 45.2978C19.003 45.2815 18.9907 45.2565 18.9747 45.2402C18.9513 45.2152 18.9352 45.2127 18.7566 45.2127V45.1163C18.7566 45.0413 18.7517 45.0137 18.7344 44.9962C18.7234 44.9837 18.7012 44.9737 18.6864 44.975C18.6642 44.975 18.6581 44.9674 18.6581 44.9412C18.6581 44.9212 18.6519 44.8986 18.6433 44.8899C18.6347 44.8811 18.6174 44.8749 18.6063 44.8749C18.5903 44.8749 18.5841 44.8648 18.5841 44.8436C18.5841 44.8227 18.5759 44.8102 18.5595 44.806C18.5447 44.8023 18.5349 44.7898 18.5349 44.7748C18.5349 44.761 18.5262 44.7472 18.5164 44.7435C18.5065 44.7397 18.4979 44.7285 18.4979 44.7185C18.4979 44.7085 18.4893 44.6972 18.4794 44.6934C18.4696 44.6897 18.461 44.6784 18.461 44.6684C18.461 44.6584 18.4523 44.6496 18.4425 44.6496C18.4326 44.6496 18.424 44.6384 18.424 44.6246C18.424 44.6109 18.4178 44.5996 18.4117 44.5996C18.4055 44.5996 18.3994 44.5908 18.3994 44.5808C18.3994 44.5708 18.3932 44.5621 18.387 44.5621C18.3809 44.5621 18.3747 44.5533 18.3747 44.5433C18.3747 44.5333 18.3686 44.5245 18.3624 44.5245C18.3562 44.5245 18.3501 44.5158 18.3501 44.5058C18.3501 44.4958 18.3439 44.487 18.3378 44.487C18.3316 44.487 18.3255 44.4782 18.3255 44.4682C18.3255 44.4582 18.3193 44.4495 18.3131 44.4495C18.307 44.4495 18.3008 44.4407 18.3008 44.4307C18.3008 44.4207 18.2934 44.4044 18.2848 44.3969C18.2749 44.3882 18.2639 44.3681 18.2602 44.3531C18.2552 44.3369 18.2429 44.3243 18.2331 44.3243C18.2232 44.3243 18.2146 44.3131 18.2146 44.2993C18.2146 44.2856 18.2072 44.2605 18.1998 44.243C18.1912 44.2255 18.1739 44.2117 18.1628 44.2117C18.1468 44.2117 18.1407 44.2017 18.1407 44.1742C18.1407 44.1529 18.1333 44.1229 18.1259 44.1054C18.116 44.0854 18.1 44.0741 18.0828 44.0741C18.0569 44.0741 18.0544 44.0679 18.0544 44.0053C18.0544 43.9603 18.0483 43.9302 18.036 43.9177C18.0261 43.9077 18.0175 43.8914 18.0175 43.8839C18.0175 43.8752 18.0052 43.8364 17.9904 43.7989C17.9756 43.7613 17.9583 43.7288 17.9534 43.7275C17.9485 43.725 17.9436 43.7138 17.9436 43.7025C17.9436 43.69 17.9214 43.6124 17.8955 43.5298C17.8696 43.4473 17.8253 43.2784 17.7982 43.1545C17.7699 43.0306 17.728 42.8279 17.7046 42.7041C17.6812 42.5802 17.6442 42.3775 17.6245 42.2537C17.6036 42.1298 17.5678 41.8908 17.5444 41.7219C17.521 41.553 17.4841 41.269 17.4644 41.0901C17.4452 40.9261 17.4208 40.6927 17.4055 40.546L17.4015 40.5083C17.388 40.3669 17.3658 40.1192 17.3523 39.9578C17.3387 39.7963 17.3178 39.4886 17.303 39.2759C17.2894 39.0632 17.2759 38.838 17.2722 38.7754C17.2685 38.7128 17.2574 38.4826 17.2475 38.2624C17.2377 38.0422 17.2291 37.802 17.2291 37.593H17.1305C17.0726 37.593 17.032 37.588 17.032 37.5805C17.032 37.573 17.0714 37.568 17.2167 37.568V37.1176H17.0196V36.8298H17.2044V36.2668H17.0073V35.9665H17.2044V35.3284H17.0196V35.0281H17.2167V34.5777H17.1244C17.0504 34.5777 17.032 34.574 17.032 34.5589C17.032 34.5439 17.0517 34.5402 17.2291 34.5402V34.4188C17.2291 34.3512 17.2352 34.1698 17.2414 34.0147C17.2475 33.8595 17.2599 33.6181 17.266 33.4767C17.2734 33.3353 17.287 33.0851 17.2981 32.9199C17.3079 32.7547 17.3264 32.4707 17.3412 32.2881C17.3547 32.1054 17.3794 31.8051 17.3966 31.6187C17.4138 31.4323 17.4434 31.132 17.4644 30.9493C17.4841 30.7666 17.5149 30.5114 17.5321 30.38C17.5481 30.2487 17.5814 30.0122 17.606 29.8545C17.6294 29.6969 17.6676 29.4567 17.6923 29.3228C17.7157 29.1889 17.7551 28.9862 17.7785 28.8724C17.8019 28.7585 17.8376 28.6109 17.8573 28.5446C17.8783 28.477 17.8943 28.4107 17.8943 28.3969C17.8943 28.3832 17.8992 28.3706 17.9041 28.3694C17.9091 28.3669 17.9263 28.3331 17.9411 28.2943C17.9559 28.2543 17.9682 28.213 17.9682 28.203C17.9682 28.193 17.9768 28.1755 17.9867 28.1654C17.9965 28.1554 18.0052 28.1329 18.0052 28.1154C18.0052 28.0979 18.0089 28.0841 18.015 28.0841C18.0199 28.0841 18.031 28.0704 18.0397 28.0528C18.0483 28.0353 18.0544 27.9753 18.0544 27.8089H18.1074C18.1505 27.8101 18.1616 27.8039 18.1752 27.7776C18.1826 27.7601 18.1899 27.735 18.1899 27.7213C18.1899 27.7075 18.1986 27.6963 18.2084 27.6963C18.2183 27.6963 18.2306 27.6837 18.2355 27.6687C18.2392 27.6525 18.2503 27.6324 18.2602 27.6249C18.2688 27.6162 18.2762 27.5999 18.2762 27.5899C18.2762 27.5799 18.2823 27.5711 18.2885 27.5711C18.2947 27.5711 18.3008 27.5624 18.3008 27.5524C18.3008 27.5424 18.307 27.5336 18.3131 27.5336C18.3193 27.5336 18.3255 27.5248 18.3255 27.5148C18.3255 27.5048 18.3316 27.4961 18.3378 27.4961C18.3439 27.4961 18.3501 27.4873 18.3501 27.4773C18.3501 27.4673 18.3562 27.4585 18.3624 27.4585C18.3686 27.4585 18.3747 27.4498 18.3747 27.4398C18.3747 27.4298 18.3809 27.421 18.387 27.421C18.3932 27.421 18.3994 27.4097 18.3994 27.396C18.3994 27.3822 18.408 27.371 18.4178 27.371C18.4277 27.371 18.4363 27.3622 18.4363 27.3522C18.4363 27.3422 18.4449 27.3309 18.4548 27.3272C18.4647 27.3234 18.4733 27.3121 18.4733 27.3021C18.4733 27.2921 18.4819 27.2809 18.4918 27.2771C18.5016 27.2734 18.5102 27.2596 18.5102 27.2458C18.5102 27.2308 18.5201 27.2183 18.5349 27.2146C18.5513 27.2104 18.5595 27.1979 18.5595 27.177C18.5595 27.1558 18.5657 27.1457 18.5817 27.1457C18.594 27.1457 18.61 27.1382 18.6186 27.1307C18.6273 27.122 18.6334 27.102 18.6334 27.0869C18.6334 27.0682 18.6408 27.0582 18.6556 27.0582C18.6667 27.0582 18.6889 27.0456 18.7049 27.0294C18.7295 27.0056 18.732 26.9893 18.732 26.8079H18.8281C18.9094 26.8079 18.9266 26.8029 18.9513 26.7791C18.966 26.7641 18.9784 26.7391 18.9784 26.7241C18.9784 26.7003 18.9857 26.6953 19.019 26.6928C19.0498 26.6903 19.0597 26.6828 19.0621 26.6615C19.0646 26.6403 19.0744 26.6328 19.0966 26.6328C19.1163 26.6328 19.1286 26.624 19.1323 26.6077C19.136 26.5927 19.1484 26.5827 19.1631 26.5827C19.1767 26.5827 19.1902 26.574 19.1939 26.5639C19.1976 26.5539 19.2087 26.5452 19.2186 26.5452C19.2284 26.5452 19.2395 26.5364 19.2432 26.5264C19.2469 26.5164 19.258 26.5076 19.2678 26.5076C19.2777 26.5076 19.2888 26.4989 19.2925 26.4889C19.2962 26.4789 19.3073 26.4701 19.3171 26.4701C19.327 26.4701 19.3356 26.4651 19.3356 26.4576C19.3356 26.4501 19.3442 26.4451 19.3541 26.4451C19.3639 26.4451 19.3726 26.4401 19.3726 26.4326C19.3726 26.4251 19.38 26.4201 19.3886 26.4201C19.396 26.4201 19.4157 26.4088 19.4317 26.395C19.4465 26.3813 19.465 26.37 19.4711 26.37C19.4773 26.37 19.4834 26.365 19.4834 26.3575C19.4834 26.35 19.4921 26.345 19.5019 26.345C19.5118 26.345 19.5204 26.3362 19.5204 26.3262C19.5204 26.315 19.5315 26.3075 19.5512 26.3075C19.5709 26.3075 19.582 26.2999 19.582 26.2887C19.582 26.2787 19.5931 26.2699 19.6066 26.2699C19.6202 26.2699 19.6399 26.2674 19.6497 26.2637C19.6596 26.2599 19.6682 26.2487 19.6682 26.2386C19.6682 26.2286 19.6793 26.2199 19.6929 26.2199C19.7064 26.2199 19.7643 26.1961 19.8222 26.1661C19.8801 26.1373 19.9269 26.106 19.9269 26.0973C19.9269 26.0885 19.9429 26.0822 19.9688 26.0822C19.9922 26.0822 20.0193 26.0735 20.0304 26.0635C20.0402 26.0535 20.0538 26.0447 20.0612 26.0447C20.0686 26.0447 20.124 26.0259 20.1856 26.0047C20.2669 25.9746 20.2965 25.9571 20.2965 25.9421C20.2965 25.9233 20.3076 25.9196 20.3605 25.9196C20.3963 25.9196 20.4616 25.9083 20.5059 25.8946C20.5503 25.8821 20.6611 25.857 20.7523 25.8395C20.8434 25.822 21.0184 25.7907 21.1403 25.7707C21.2623 25.7507 21.5087 25.7131 21.6885 25.6894C21.8684 25.6644 22.1369 25.6306 22.286 25.6131C22.435 25.5968 22.6432 25.5743 22.7479 25.5643C22.8527 25.553 23.0633 25.533 23.2161 25.5192C23.3688 25.5055 23.6374 25.4829 23.8135 25.4704C23.9897 25.4567 24.2607 25.4366 24.4172 25.4266C24.5736 25.4154 24.8422 25.3991 25.0146 25.3878C25.1871 25.3778 25.4951 25.3603 25.6983 25.3503C25.9016 25.3403 26.334 25.3203 26.6592 25.3065L26.7216 25.3041C27.0369 25.292 27.4305 25.2768 27.9096 25.2627L27.9145 25.0625L27.9219 25.2565H28.3654V25.1564C28.3654 25.0575 28.3654 25.0563 28.3962 25.0563C28.4257 25.0563 28.427 25.0588 28.427 25.244H28.8581V25.0438H29.0306V25.2314H29.4864V25.0313H29.7821V25.2189H30.2871V25.0187H31.0635V25.2064H31.7041Z" fill="#FF0000"/>
  <path d="M29.515 40.6911C29.5027 40.6948 29.499 39.7502 29.499 35.9979C29.499 33.4143 29.5015 31.2998 29.5052 31.2998C29.5089 31.2998 31.3259 32.357 33.5446 33.6482C35.7632 34.9407 37.5778 35.9992 37.5766 35.9992C37.5754 36.0003 36.0471 36.8905 34.0832 38.0344L33.552 38.3439C31.3395 39.6326 29.5224 40.6886 29.515 40.6911Z" fill="black"/>
  <path d="M29.4951 38.3622C29.4939 39.6559 29.4927 38.5912 29.4927 35.9975C29.4927 33.4026 29.4939 32.3441 29.4951 33.6453C29.4976 34.9465 29.4976 37.0685 29.4951 38.3622Z" fill="#FF5757"/>
  <path d="M32.8372 25.2064L32.8374 25.1063L32.8372 25.0062H33.0431C33.1577 25.0062 33.3129 25.01 33.5273 25.025L33.527 25.2064H32.8372Z" fill="#FF0000"/>
  <path d="M33.4597 25.0153C33.4326 25.0181 33.3944 25.0181 33.3734 25.0153C33.3525 25.0125 33.3759 25.0097 33.4227 25.0097C33.4695 25.0097 33.4868 25.0125 33.4597 25.0153Z" fill="#FF0000" fill-opacity="0.8"/>
  <path d="M33.632 25.0153C33.6049 25.0181 33.563 25.0181 33.5396 25.0153C33.5162 25.0125 33.5384 25.0097 33.5889 25.0097C33.6394 25.0097 33.6591 25.0125 33.632 25.0153Z" fill="#FF0000" fill-opacity="0.7"/>
  <path d="M29.7821 25.0313L29.8783 25.0275C29.9301 25.025 30.0432 25.0225 30.2871 25.0187V25.2189H29.7821V25.0313Z" fill="#FF0000"/>
  <path d="M34.377 25.2189L34.377 25.1188L34.377 25.0187L34.4903 25.0187C34.5531 25.0187 34.6677 25.0225 34.882 25.0375L34.8821 25.2189H34.377Z" fill="#FF0000"/>
  <path d="M29.0306 25.0438L29.1268 25.0399C29.1786 25.0374 29.2807 25.035 29.4864 25.0313V25.2314H29.0306V25.0438Z" fill="#FF0000"/>
  <path d="M35.1901 25.2314L35.1899 25.1313L35.1901 25.0313L35.291 25.0312C35.3476 25.0312 35.456 25.0349 35.6704 25.05L35.6705 25.2314H35.1901Z" fill="#FF0000"/>
  <path d="M28.4272 25.0562L28.5233 25.0524C28.5751 25.0499 28.6721 25.0475 28.8581 25.0438V25.244H28.427L28.4272 25.0562Z" fill="#FF0000"/>
  <path d="M35.8307 25.244L35.8311 25.1438L35.8307 25.0438L35.9198 25.0437C35.969 25.0437 36.0725 25.0474 36.2869 25.0624L36.2865 25.244H35.8307Z" fill="#FF0000"/>
  <path d="M27.9219 25.0686L28.018 25.0649C28.0697 25.0624 28.1695 25.0599 28.3654 25.0561L28.3654 25.2565H27.9219L27.9219 25.0686Z" fill="#FF0000"/>
  <path d="M36.4097 25.2565V25.0563L36.486 25.0561C36.5292 25.0561 36.6265 25.0599 36.8408 25.0749L36.8408 25.2565H36.4097Z" fill="#FF0000"/>
  <path d="M26.5977 25.1124C26.8749 25.1011 27.2297 25.0886 27.3861 25.0824C27.5426 25.0774 27.7236 25.0711 27.9097 25.0686L27.9096 25.2627L27.5807 25.2726C27.3984 25.2776 26.9844 25.294 26.6592 25.3065C26.334 25.3203 25.9016 25.3403 25.6983 25.3503C25.4951 25.3603 25.1871 25.3778 25.0146 25.3878C24.8422 25.3991 24.5736 25.4154 24.4172 25.4266C24.2607 25.4366 23.9897 25.4567 23.8135 25.4704C23.6374 25.4829 23.3688 25.5055 23.2161 25.5192C23.0633 25.533 22.8527 25.553 22.7479 25.5643C22.6432 25.5743 22.435 25.5968 22.286 25.6131C22.1369 25.6306 21.8684 25.6644 21.6885 25.6894C21.5087 25.7131 21.2623 25.7507 21.1403 25.7707C21.0184 25.7907 20.8434 25.822 20.7523 25.8395C20.6611 25.857 20.5503 25.8821 20.5059 25.8946C20.4616 25.9083 20.3963 25.9194 20.3618 25.9194C20.3076 25.9194 20.2965 25.9233 20.2965 25.9421C20.2965 25.9571 20.2669 25.9746 20.1856 26.0047C20.124 26.0259 20.0686 26.0447 20.0612 26.0447C20.0538 26.0447 20.0402 26.0535 20.0304 26.0635C20.0193 26.0735 19.9922 26.0822 19.9688 26.0822C19.9429 26.0822 19.927 26.0883 19.927 26.0983C19.927 26.1058 19.8802 26.1371 19.8223 26.1671C19.7644 26.1959 19.7064 26.2199 19.6929 26.2199C19.6793 26.2199 19.6682 26.2286 19.6682 26.2386C19.6682 26.2487 19.6596 26.2599 19.6497 26.2637C19.6399 26.2674 19.6202 26.2699 19.6066 26.2699C19.5931 26.2699 19.582 26.2787 19.582 26.2887C19.582 26.2999 19.5709 26.3075 19.5512 26.3075C19.5315 26.3075 19.5204 26.315 19.5204 26.3262C19.5204 26.3362 19.5118 26.345 19.5019 26.345C19.4921 26.345 19.4834 26.35 19.4834 26.3575C19.4834 26.365 19.4773 26.37 19.4711 26.37C19.465 26.37 19.4466 26.3811 19.4305 26.3949C19.4158 26.4086 19.396 26.4199 19.3874 26.4199C19.38 26.4199 19.3726 26.4251 19.3726 26.4326C19.3726 26.4401 19.3639 26.4451 19.3541 26.4451C19.3442 26.4451 19.3356 26.4501 19.3356 26.4576C19.3356 26.4651 19.327 26.4701 19.3171 26.4701C19.3073 26.4701 19.2962 26.4789 19.2925 26.4889C19.2888 26.4989 19.2777 26.5076 19.2678 26.5076C19.258 26.5076 19.2469 26.5164 19.2432 26.5264C19.2395 26.5364 19.2284 26.5452 19.2186 26.5452C19.2087 26.5452 19.1976 26.5539 19.1939 26.5639C19.1902 26.574 19.1767 26.5827 19.1631 26.5827C19.1484 26.5827 19.136 26.5927 19.1323 26.6077C19.1282 26.6244 19.116 26.6326 19.0955 26.6326C19.0721 26.6326 19.0634 26.6401 19.061 26.6614C19.0597 26.6826 19.0499 26.6901 19.0179 26.6926C18.9858 26.6951 18.9784 26.7003 18.9784 26.7241C18.9784 26.7391 18.9661 26.764 18.9501 26.7802C18.9267 26.8052 18.9106 26.8079 18.732 26.8079L18.7321 26.9053C18.7321 26.9879 18.7271 27.0054 18.7037 27.0305C18.6889 27.0455 18.6668 27.058 18.6544 27.058C18.6405 27.058 18.6334 27.0678 18.6334 27.0869C18.6334 27.102 18.6273 27.122 18.6186 27.1307C18.61 27.1382 18.594 27.1457 18.5817 27.1457C18.5657 27.1457 18.5595 27.1558 18.5595 27.177C18.5595 27.1979 18.5513 27.2104 18.5349 27.2146C18.5201 27.2183 18.5102 27.2308 18.5102 27.2458C18.5102 27.2596 18.5016 27.2734 18.4918 27.2771C18.4819 27.2809 18.4733 27.2921 18.4733 27.3021C18.4733 27.3121 18.4647 27.3234 18.4548 27.3272C18.4449 27.3309 18.4363 27.3422 18.4363 27.3522C18.4363 27.3622 18.4277 27.371 18.4178 27.371C18.408 27.371 18.3994 27.3822 18.3994 27.396C18.3994 27.4097 18.3932 27.421 18.387 27.421C18.3809 27.421 18.3747 27.4298 18.3747 27.4398C18.3747 27.4498 18.3686 27.4585 18.3624 27.4585C18.3562 27.4585 18.3501 27.4673 18.3501 27.4773C18.3501 27.4873 18.3439 27.4961 18.3378 27.4961C18.3316 27.4961 18.3255 27.5048 18.3255 27.5148C18.3255 27.5248 18.3193 27.5336 18.3131 27.5336C18.307 27.5336 18.3008 27.5424 18.3008 27.5524C18.3008 27.5624 18.2947 27.5711 18.2885 27.5711C18.2823 27.5711 18.2762 27.5799 18.2762 27.5899C18.2762 27.5999 18.2688 27.6162 18.2602 27.6249C18.2503 27.6324 18.2392 27.6525 18.2355 27.6687C18.2306 27.6837 18.2183 27.6963 18.2084 27.6963C18.1986 27.6963 18.1899 27.7075 18.1899 27.7213C18.1899 27.735 18.1826 27.7599 18.174 27.7774C18.1617 27.8037 18.1505 27.8101 18.0544 27.8089L18.0545 27.915C18.0545 27.9751 18.0484 28.0351 18.0385 28.0527C18.0311 28.0702 18.02 28.0839 18.0139 28.0839C18.0089 28.0839 18.0052 28.0979 18.0052 28.1154C18.0052 28.1329 17.9965 28.1554 17.9867 28.1654C17.9768 28.1755 17.9682 28.193 17.9682 28.203C17.9682 28.213 17.9559 28.2543 17.9411 28.2943C17.9263 28.3331 17.9104 28.3667 17.9055 28.3692C17.9005 28.3717 17.8956 28.3842 17.8956 28.398C17.8944 28.4105 17.8783 28.477 17.8573 28.5446C17.8376 28.6109 17.8019 28.7585 17.7785 28.8724C17.7551 28.9862 17.7157 29.1889 17.6923 29.3228C17.6676 29.4567 17.6294 29.6969 17.606 29.8545C17.5814 30.0122 17.5481 30.2487 17.5321 30.38C17.5149 30.5114 17.4841 30.7666 17.4644 30.9493C17.4434 31.132 17.4138 31.4323 17.3966 31.6187C17.3794 31.8051 17.3547 32.1054 17.3412 32.2881C17.3264 32.4707 17.3079 32.7547 17.2981 32.9199C17.287 33.0851 17.2734 33.3353 17.266 33.4767C17.2599 33.6181 17.2475 33.8595 17.2414 34.0147C17.2352 34.1698 17.2291 34.3512 17.2291 34.5402L17.0259 34.54L17.0357 34.3185C17.0407 34.1959 17.0505 33.9582 17.0567 33.7893C17.0641 33.6204 17.0776 33.3251 17.0887 33.1324C17.0986 32.9397 17.1146 32.6582 17.1257 32.5068C17.1355 32.3554 17.1515 32.1252 17.1614 31.9939C17.1712 31.8625 17.1885 31.661 17.1983 31.5434C17.2094 31.4258 17.2341 31.1706 17.255 30.9741C17.2747 30.7777 17.308 30.4849 17.3289 30.3235C17.3486 30.1621 17.3844 29.8944 17.409 29.7292C17.4336 29.5641 17.4768 29.2938 17.5063 29.1287C17.5359 28.9635 17.579 28.7383 17.6036 28.6282C17.627 28.5181 17.6665 28.3629 17.6911 28.2841C17.717 28.2053 17.7613 28.0789 17.7921 28.0026C17.8217 27.9263 17.8894 27.7812 17.9412 27.6773C17.9929 27.5747 18.0841 27.4158 18.142 27.327C18.1999 27.2381 18.2947 27.1055 18.3514 27.033C18.4081 26.9604 18.5189 26.8353 18.5965 26.7527C18.6742 26.6714 18.8023 26.55 18.8799 26.4837C18.9575 26.4174 19.0696 26.3273 19.13 26.2848C19.1891 26.2422 19.3049 26.1659 19.3874 26.1146C19.4712 26.0645 19.5808 26.002 19.6313 25.9757C19.6818 25.9494 19.7853 25.9019 19.8592 25.8694C19.9331 25.8368 20.081 25.7818 20.1857 25.7467C20.32 25.703 20.4592 25.6692 20.6538 25.6341C20.8066 25.6054 21.0616 25.5628 21.2205 25.5391C21.3794 25.5153 21.627 25.4815 21.7687 25.464C21.9103 25.4465 22.1543 25.4177 22.3107 25.4014C22.4672 25.3839 22.7493 25.3564 22.939 25.3389C23.1287 25.3213 23.428 25.2963 23.6042 25.2826C23.7804 25.2688 24.0933 25.2463 24.3002 25.2325C24.5072 25.2188 24.8287 25.1987 25.0147 25.1875C25.2007 25.1775 25.5198 25.1599 25.7231 25.1499C25.9263 25.1399 26.3205 25.1237 26.5977 25.1124Z" fill="#FF0000"/>
  <path d="M36.8655 25.269L36.8652 25.1687V25.0686H36.9416C36.9847 25.0686 37.082 25.0724 37.2964 25.0874L37.2966 25.269H36.8655Z" fill="#FF0000"/>
  <path d="M37.3336 25.2752L37.3335 25.0818H37.3729C37.3951 25.0818 37.6575 25.0905 37.9556 25.1005C38.2537 25.1106 38.7034 25.1281 38.9534 25.1381C39.2035 25.1481 39.5287 25.1631 39.6741 25.1694C39.8195 25.1769 40.1003 25.1906 40.2962 25.2006C40.4921 25.2119 40.8752 25.2344 41.1462 25.2507C41.4172 25.2682 41.7831 25.2932 41.9593 25.307C42.1354 25.3208 42.3744 25.3408 42.489 25.3508C42.6035 25.362 42.8117 25.3821 42.9509 25.3958C43.0901 25.4096 43.3341 25.4384 43.493 25.4584C43.6519 25.4784 43.865 25.5097 43.9672 25.5272C44.0683 25.5447 44.2099 25.5722 44.2814 25.5885C44.3528 25.6035 44.4772 25.6386 44.5586 25.6636C44.6399 25.6886 44.7754 25.7336 44.8604 25.7637C44.9454 25.7937 45.0809 25.8487 45.1622 25.885C45.2435 25.9226 45.3679 25.9864 45.4394 26.0264C45.5108 26.0677 45.6328 26.1428 45.7104 26.1953C45.788 26.2479 45.9099 26.338 45.9814 26.3968C46.0528 26.4543 46.1711 26.5607 46.245 26.6332C46.3177 26.7058 46.4236 26.8184 46.4791 26.8835C46.5357 26.9485 46.6146 27.0474 46.6552 27.1024C46.6959 27.1575 46.7661 27.2588 46.8092 27.3276C46.8536 27.3964 46.9226 27.5141 46.962 27.5904C47.0026 27.6655 47.0593 27.7818 47.0889 27.8469C47.1184 27.9119 47.164 28.0245 47.1911 28.0971C47.217 28.1697 47.2552 28.2848 47.2749 28.3536C47.2946 28.4224 47.3328 28.5776 47.3599 28.6977C47.387 28.8178 47.4338 29.0467 47.4646 29.2044C47.4954 29.362 47.5422 29.6298 47.5693 29.7987C47.5964 29.9676 47.6383 30.2491 47.6617 30.4243C47.6863 30.5995 47.7245 30.921 47.7479 31.1375C47.7726 31.3539 47.8021 31.6554 47.8157 31.8068C47.8292 31.9582 47.8489 32.1922 47.86 32.3261C47.8699 32.4599 47.8859 32.7027 47.897 32.8641C47.9067 33.0225 47.9223 33.322 47.9333 33.5342L47.9339 33.546C47.9438 33.7587 47.9573 34.109 47.9647 34.3217C47.9709 34.5344 47.9771 34.7304 47.9771 34.8029H47.78L47.78 34.6495C47.78 34.5657 47.7739 34.3588 47.7677 34.1898C47.7603 34.0209 47.7468 33.7207 47.7369 33.5205C47.7258 33.3203 47.7098 33.0338 47.6987 32.8824C47.6889 32.731 47.6692 32.472 47.6556 32.3068C47.6433 32.1417 47.615 31.8401 47.594 31.6375C47.5743 31.4348 47.5386 31.1107 47.5139 30.918C47.4905 30.7253 47.4524 30.4376 47.4289 30.2799C47.4043 30.1223 47.371 29.9108 47.3538 29.8107C47.3366 29.7106 47.3008 29.5142 47.2737 29.3728C47.2466 29.2314 47.1986 29.0062 47.169 28.8724C47.1394 28.7385 47.1148 28.6159 47.1148 28.5996C47.1148 28.5846 47.1099 28.5721 47.1025 28.5721C47.0951 28.5721 47.0902 28.5521 47.0902 28.5283C47.0902 28.5045 47.0864 28.485 47.0802 28.485C47.0753 28.485 47.0618 28.4557 47.0508 28.4194C47.0384 28.3832 47.0286 28.3444 47.0286 28.3319C47.0286 28.3206 47.0249 28.3093 47.0187 28.3068C47.0138 28.3056 46.9941 28.2643 46.9756 28.2155C46.9571 28.1667 46.9423 28.1179 46.9423 28.1054C46.9423 28.0941 46.9386 28.0846 46.9324 28.0846C46.9275 28.0846 46.9165 28.0704 46.9091 28.0528C46.9005 28.0353 46.8931 27.999 46.8931 27.9715C46.8931 27.9302 46.8894 27.9215 46.8684 27.9215C46.8463 27.9215 46.8438 27.9127 46.8438 27.8527C46.8438 27.7863 46.8426 27.7838 46.8105 27.7838C46.7859 27.7838 46.7711 27.7751 46.7613 27.7526C46.7526 27.735 46.7452 27.71 46.7452 27.6963C46.7452 27.6825 46.7366 27.6712 46.7268 27.6712C46.7169 27.6712 46.7046 27.66 46.6997 27.6437C46.696 27.6287 46.6849 27.6087 46.675 27.5999C46.6664 27.5924 46.659 27.5749 46.659 27.5649C46.659 27.5549 46.6541 27.5461 46.6467 27.5461C46.6393 27.5461 46.6344 27.5374 46.6344 27.5274C46.6344 27.5173 46.6294 27.5086 46.6221 27.5086C46.6147 27.5086 46.6097 27.4998 46.6097 27.4898C46.6097 27.4798 46.6048 27.471 46.5974 27.471C46.59 27.471 46.5851 27.4623 46.5851 27.4523C46.5851 27.4423 46.5802 27.4335 46.5728 27.4335C46.5654 27.4335 46.5605 27.4248 46.5605 27.4147C46.5605 27.4047 46.5518 27.3935 46.542 27.3897C46.5321 27.386 46.5235 27.3747 46.5235 27.3647C46.5235 27.3547 46.5186 27.3459 46.5112 27.3459C46.5038 27.3459 46.4989 27.3347 46.4989 27.3209C46.4989 27.3071 46.4902 27.2959 46.4804 27.2959C46.4705 27.2959 46.4619 27.2846 46.4619 27.2709C46.4619 27.2571 46.4533 27.2458 46.4434 27.2458C46.4336 27.2458 46.4213 27.2371 46.4163 27.2246C46.4114 27.2133 46.3978 27.1958 46.3855 27.187C46.3732 27.1795 46.3634 27.162 46.3634 27.1495C46.3634 27.1382 46.351 27.122 46.3363 27.1145C46.3165 27.1057 46.3067 27.0907 46.3055 27.0619C46.3018 27.0294 46.2968 27.0206 46.2747 27.0206C46.2586 27.0206 46.2339 27.0086 46.2179 26.9923C46.1945 26.9685 46.1909 26.9518 46.1909 26.7829L46.1021 26.7834C46.0257 26.7834 46.0073 26.7784 45.9839 26.7546C45.9691 26.7396 45.9568 26.7178 45.9568 26.7053C45.9568 26.6903 45.947 26.6828 45.9297 26.6828C45.9137 26.6828 45.894 26.6766 45.8854 26.6678C45.8768 26.659 45.8706 26.6428 45.8706 26.6303C45.8706 26.6152 45.8607 26.6077 45.8398 26.6077C45.8193 26.6077 45.8069 26.5994 45.8028 26.5827C45.7991 26.5677 45.7868 26.5577 45.772 26.5577C45.7585 26.5577 45.7449 26.5489 45.7412 26.5389C45.7376 26.5289 45.7265 26.5202 45.7166 26.5202C45.7068 26.5202 45.6957 26.5114 45.692 26.5014C45.6883 26.4914 45.6772 26.4826 45.6673 26.4826C45.6575 26.4826 45.6464 26.4739 45.6427 26.4639C45.639 26.4538 45.6279 26.4451 45.6181 26.4451C45.6082 26.4451 45.5996 26.4401 45.5996 26.4326C45.5996 26.4251 45.591 26.4201 45.5811 26.4201C45.5712 26.4201 45.5626 26.4151 45.5626 26.4076C45.5626 26.4 45.554 26.395 45.5441 26.395C45.5343 26.395 45.5257 26.39 45.5257 26.3825C45.5257 26.375 45.517 26.37 45.5072 26.37C45.4973 26.37 45.4887 26.365 45.4887 26.3575C45.4887 26.35 45.4801 26.345 45.4702 26.345C45.4604 26.345 45.4518 26.34 45.4518 26.3325C45.4518 26.325 45.4382 26.3175 45.421 26.3137C45.4037 26.31 45.3902 26.3025 45.3902 26.2949C45.3902 26.2874 45.3815 26.2824 45.3717 26.2824C45.3618 26.2824 45.3458 26.2749 45.3384 26.2662C45.3298 26.2574 45.3039 26.2424 45.2818 26.2324C45.2596 26.2224 45.2411 26.2074 45.2423 26.1986C45.2423 26.1911 45.2312 26.1823 45.2177 26.1823C45.2041 26.1823 45.1573 26.1648 45.113 26.1448C45.0662 26.1235 45.0329 26.0998 45.0329 26.0885C45.0329 26.076 45.0194 26.0697 44.9898 26.0697C44.9664 26.0697 44.9381 26.061 44.9282 26.051C44.9183 26.041 44.9023 26.0322 44.8949 26.0322C44.8863 26.0322 44.8469 26.0197 44.8075 26.0034C44.7693 25.9884 44.7373 25.9696 44.7373 25.9609C44.7373 25.9521 44.7212 25.9446 44.7003 25.9446C44.6794 25.9446 44.6153 25.9296 44.5562 25.9108C44.4958 25.8933 44.4453 25.8733 44.4416 25.8695C44.4379 25.8645 44.4157 25.857 44.3923 25.8545C44.3689 25.8508 44.3049 25.8345 44.2507 25.8182C44.1965 25.802 44.1509 25.7845 44.1496 25.7795C44.1472 25.7732 44.1299 25.7695 44.109 25.7695C44.088 25.7695 43.9981 25.7557 43.9094 25.7394C43.8195 25.7219 43.668 25.6969 43.5731 25.6831C43.4783 25.6694 43.2849 25.6431 43.142 25.6268C42.9991 25.6093 42.7367 25.5805 42.5568 25.5643C42.3769 25.5467 42.0505 25.518 41.83 25.5005C41.6095 25.4842 41.2522 25.4579 41.0354 25.4441C40.8186 25.4304 40.4909 25.4116 40.3086 25.4004C40.1263 25.3903 39.7986 25.3741 39.5818 25.3628C39.365 25.3528 38.988 25.3365 38.7441 25.3253C38.5002 25.3153 38.0826 25.3003 37.3336 25.2752Z" fill="#FF0000"/>
  <path d="M17.0195 34.9445C17.0195 34.8969 17.0232 34.7956 17.0269 34.7193L17.0355 34.5779L17.2167 34.5777V35.0281H17.0196L17.0195 34.9445Z" fill="#FF0000"/>
  <path d="M47.7924 35.4911L47.7925 35.2412L47.7924 34.9906L47.9711 34.9909L47.9797 35.1311C47.9859 35.2086 47.9895 35.3209 47.9895 35.4911H47.7924Z" fill="#FF0000"/>
  <path d="M17.0073 35.7889C17.0073 35.69 17.011 35.5461 17.0147 35.4698L17.0233 35.3284L17.2044 35.3284V35.9665H17.0073V35.7889Z" fill="#FF0000"/>
  <path d="M47.9978 35.6097C47.9954 35.6447 47.9941 35.6184 47.9941 35.5534C47.9941 35.4883 47.9954 35.4595 47.9978 35.4908C48.0003 35.5221 48.0003 35.5746 47.9978 35.6097Z" fill="#FF0000" fill-opacity="0.2"/>
  <path d="M47.9978 36.0039C47.9966 36.069 47.9941 36.0189 47.9941 35.8913C47.9941 35.7637 47.9966 35.7099 47.9978 35.7725C48.0003 35.835 48.0003 35.9389 47.9978 36.0039Z" fill="#FF0000" fill-opacity="0.3"/>
  <path d="M17.0037 36.1105C17.0012 36.1581 17 36.1256 17 36.0355C17 35.9454 17.0012 35.9066 17.0037 35.9479C17.0062 35.9892 17.0062 36.063 17.0037 36.1105Z" fill="#FF0000" fill-opacity="0.1"/>
  <path d="M17.0172 36.6897C17.011 36.6121 17.0073 36.4845 17.0073 36.4082V36.2668H17.2044V36.8298L17.0258 36.8298L17.0172 36.6897Z" fill="#FF0000"/>
  <path d="M47.9981 36.3858C47.9956 36.4133 47.9932 36.3958 47.9932 36.3483C47.9932 36.3007 47.9956 36.277 47.9981 36.2982C48.0006 36.3195 48.0006 36.3583 47.9981 36.3858Z" fill="#FF0000" fill-opacity="0.1"/>
  <path d="M47.7924 36.7923L47.7925 36.5544L47.7924 36.3168H47.9895L47.9896 36.4131C47.9896 36.4669 47.9859 36.5745 47.9711 36.7922L47.7924 36.7923Z" fill="#FF0000"/>
  <path d="M47.7492 38.0184C47.7591 37.802 47.7715 37.4767 47.7765 37.2965L47.7839 36.9675L47.9771 36.9674L47.9773 37.0213C47.9773 37.0501 47.9711 37.2427 47.965 37.4492C47.9588 37.6556 47.9477 37.9572 47.9403 38.1186C47.9329 38.28 47.9194 38.559 47.9083 38.7379C47.8984 38.9168 47.8824 39.1846 47.8713 39.3322C47.8615 39.4798 47.8418 39.7363 47.8282 39.9015C47.8147 40.0666 47.79 40.3432 47.774 40.5146C47.7568 40.6872 47.7321 40.9262 47.7186 41.0463C47.705 41.1664 47.6742 41.4142 47.6508 41.5968C47.6274 41.7795 47.588 42.0573 47.5646 42.2162C47.5412 42.3751 47.4993 42.6303 47.471 42.7854C47.4439 42.9406 47.3971 43.1858 47.3675 43.3297C47.3379 43.4748 47.2874 43.6713 47.2554 43.7676C47.2246 43.864 47.1704 44.0078 47.1371 44.0867C47.1039 44.1655 47.0472 44.2869 47.0115 44.3557C46.9757 44.4245 46.9117 44.5383 46.8673 44.6097C46.8242 44.681 46.7417 44.8036 46.6838 44.8812C46.6259 44.9587 46.5286 45.0813 46.4682 45.1514C46.4078 45.2215 46.2908 45.3416 46.2095 45.4167C46.1282 45.4917 45.9939 45.6056 45.9114 45.6681C45.8288 45.7307 45.7044 45.8183 45.6342 45.8621C45.5652 45.9071 45.447 45.9759 45.3718 46.0147C45.2967 46.0548 45.1759 46.1136 45.1008 46.1448C45.0257 46.1774 44.9012 46.2249 44.8236 46.2524C44.746 46.28 44.629 46.3163 44.5649 46.3325C44.5009 46.3488 44.3481 46.3813 44.2262 46.4063C44.1042 46.4301 43.8935 46.4664 43.758 46.4877C43.6225 46.5089 43.4008 46.5402 43.2653 46.5577C43.1298 46.574 42.9167 46.6003 42.791 46.614C42.6653 46.6278 42.414 46.6528 42.2305 46.6703C42.0482 46.6866 41.7513 46.7116 41.5714 46.7254C41.3916 46.7392 41.0737 46.7629 40.8631 46.7767C40.6524 46.7904 40.3321 46.8105 40.1486 46.8205C39.9663 46.8305 39.6337 46.8467 39.4095 46.858C39.1865 46.868 38.8588 46.8818 38.6826 46.8893C38.5065 46.8955 38.1098 46.9106 37.8018 46.9206C37.4939 46.9306 37.2204 46.9393 37.1489 46.9393L37.1488 46.7454L37.484 46.7354C37.6688 46.7304 38.0333 46.7178 38.2945 46.7078C38.5556 46.6978 38.9547 46.6803 39.1814 46.6703C39.4081 46.6603 39.7937 46.6403 40.0376 46.6265C40.2815 46.6127 40.6449 46.5902 40.8445 46.5765C41.044 46.5614 41.3495 46.5389 41.522 46.5252C41.6945 46.5114 41.9827 46.4864 42.1626 46.4689C42.3425 46.4526 42.6554 46.4188 42.8586 46.3938C43.0619 46.37 43.3588 46.33 43.5177 46.3062C43.6766 46.2812 43.907 46.2424 44.0289 46.2186C44.1509 46.1936 44.3036 46.1611 44.3677 46.1448C44.4317 46.1273 44.5426 46.0948 44.6141 46.0697C44.6855 46.046 44.7533 46.0259 44.7656 46.0259C44.7767 46.0259 44.7865 46.0197 44.7865 46.0134C44.7865 46.0072 44.8001 46.0009 44.8173 46.0009C44.8346 46.0009 44.8481 45.9947 44.8481 45.9884C44.8481 45.9821 44.8592 45.9759 44.874 45.9759C44.8875 45.9759 44.9073 45.9671 44.9171 45.9571C44.9282 45.9471 44.9491 45.9384 44.9664 45.9384C44.9824 45.9384 44.9972 45.9333 44.9996 45.9271C45.0009 45.9208 45.0588 45.8871 45.129 45.852C45.198 45.817 45.2657 45.7882 45.2793 45.7882C45.2928 45.7882 45.3039 45.7795 45.3039 45.7694C45.3039 45.7594 45.3125 45.7482 45.3224 45.7444C45.3323 45.7407 45.352 45.7382 45.3655 45.7382C45.3791 45.7382 45.3902 45.7294 45.3902 45.7194C45.3902 45.7094 45.3988 45.7006 45.4086 45.7006C45.4185 45.7006 45.4271 45.6944 45.4271 45.6881C45.4271 45.6819 45.4407 45.6731 45.4579 45.6694C45.4752 45.6656 45.4887 45.6568 45.4887 45.6506C45.4887 45.6443 45.4973 45.6381 45.5072 45.6381C45.517 45.6381 45.5257 45.6318 45.5257 45.6256C45.5257 45.6193 45.5343 45.6131 45.5441 45.6131C45.554 45.6131 45.5626 45.6068 45.5626 45.6005C45.5626 45.5943 45.5712 45.588 45.5811 45.588C45.591 45.588 45.5996 45.5818 45.5996 45.5755C45.5996 45.5693 45.6082 45.563 45.6181 45.563C45.6279 45.563 45.639 45.5542 45.6427 45.5442C45.6464 45.5342 45.6575 45.5255 45.6673 45.5255C45.6772 45.5255 45.6883 45.5167 45.692 45.5067C45.6957 45.4967 45.7068 45.4879 45.7166 45.4879C45.7265 45.4879 45.7351 45.4817 45.7351 45.4754C45.7351 45.4692 45.7462 45.4629 45.7597 45.4629C45.7745 45.4629 45.7868 45.4529 45.7905 45.4379C45.7942 45.4241 45.8065 45.4129 45.8189 45.4129C45.8299 45.4129 45.846 45.4004 45.8521 45.3853C45.8595 45.3691 45.8768 45.3553 45.8928 45.3541C45.9076 45.3516 45.9199 45.3428 45.9199 45.3353C45.9199 45.3265 45.9299 45.3091 45.9422 45.2965C45.9545 45.284 45.9802 45.274 46.0036 45.2752C46.0381 45.2752 46.0431 45.2715 46.0431 45.2415C46.0431 45.2152 46.0654 45.1839 46.1331 45.1151C46.2009 45.0463 46.2303 45.025 46.2562 45.025C46.2857 45.025 46.2894 45.02 46.2894 44.985C46.2894 44.9624 46.2994 44.9337 46.3118 44.9212C46.3228 44.9087 46.34 44.8986 46.3486 44.8999C46.356 44.8999 46.3646 44.8874 46.3671 44.8724C46.3683 44.8561 46.3818 44.8373 46.3979 44.8311C46.4126 44.8248 46.4249 44.8085 46.4249 44.7973C46.4249 44.7848 46.436 44.7723 46.4496 44.7685C46.4644 44.7648 46.4742 44.7522 46.4742 44.7372C46.4742 44.7235 46.4804 44.7122 46.4865 44.7122C46.4939 44.7122 46.4989 44.7034 46.4989 44.6934C46.4989 44.6834 46.5075 44.6722 46.5173 44.6684C46.5272 44.6647 46.5358 44.6534 46.5358 44.6434C46.5358 44.6334 46.5444 44.6221 46.5543 44.6184C46.5642 44.6146 46.5728 44.6034 46.5728 44.5933C46.5728 44.5833 46.5789 44.5746 46.5851 44.5746C46.5925 44.5746 46.5974 44.5658 46.5974 44.5558C46.5974 44.5458 46.6036 44.537 46.6097 44.537C46.6171 44.537 46.6221 44.5283 46.6221 44.5183C46.6221 44.5083 46.6282 44.4995 46.6344 44.4995C46.6418 44.4995 46.6467 44.4907 46.6467 44.4807C46.6467 44.4707 46.6529 44.462 46.659 44.462C46.6664 44.462 46.6715 44.4533 46.6715 44.4432C46.6715 44.4332 46.6789 44.417 46.6875 44.4095C46.6973 44.4007 46.7084 44.3807 46.7121 44.3657C46.717 44.3494 46.7269 44.3369 46.7331 44.3369C46.7405 44.3369 46.7478 44.3231 46.7515 44.3056C46.7552 44.2881 46.765 44.2668 46.7736 44.2593C46.781 44.2505 46.8167 44.1855 46.85 44.1141C46.8844 44.0441 46.9152 43.9865 46.9214 43.9865C46.9263 43.9865 46.93 43.9753 46.93 43.9615C46.93 43.9477 46.9374 43.9227 46.946 43.9052C46.9534 43.8877 46.9645 43.8739 46.9707 43.8739C46.9756 43.8739 46.9793 43.8639 46.9793 43.8527C46.9793 43.8401 46.9892 43.8039 47.0002 43.7701C47.0126 43.7375 47.0298 43.7113 47.0384 43.7113C47.0471 43.7113 47.0532 43.695 47.0532 43.6712C47.0532 43.6487 47.0606 43.6087 47.0692 43.5824C47.0766 43.5574 47.0877 43.5361 47.0939 43.5361C47.0988 43.5361 47.1025 43.5211 47.1025 43.5023C47.1025 43.4823 47.1111 43.4398 47.121 43.4047C47.1321 43.3709 47.1702 43.1895 47.2072 43.0044C47.2442 42.8192 47.2984 42.5139 47.3292 42.3287C47.36 42.1435 47.4043 41.8508 47.4277 41.6781C47.4523 41.5067 47.4881 41.2252 47.5078 41.0525C47.5287 40.8811 47.5595 40.6021 47.5755 40.4332C47.5918 40.2735 47.6148 40.0231 47.6297 39.8598L47.6322 39.8326C47.6458 39.6712 47.6655 39.426 47.6753 39.2884C47.6852 39.1507 47.7012 38.898 47.7123 38.7253C47.7221 38.5539 47.7394 38.2349 47.7492 38.0184Z" fill="#FF0000"/>
  <path d="M17.0294 37.4282C17.0232 37.3506 17.0195 37.2493 17.0195 37.203L17.0196 37.1176H17.2167V37.568L17.038 37.5683L17.0294 37.4282Z" fill="#FF0000"/>
  <path d="M17.0445 38.0375C17.0384 37.8523 17.0322 37.6759 17.0322 37.6471V37.5933L17.2291 37.593L17.2293 37.7284C17.2293 37.8023 17.2377 38.0422 17.2475 38.2624C17.2574 38.4826 17.2685 38.7141 17.2722 38.7754C17.2759 38.838 17.2894 39.0632 17.303 39.2759C17.3178 39.4886 17.3387 39.7963 17.3523 39.9578C17.3658 40.1192 17.388 40.3669 17.4015 40.5083C17.4163 40.6496 17.4434 40.9111 17.4644 41.0901C17.4841 41.269 17.521 41.553 17.5444 41.7219C17.5678 41.8908 17.6036 42.1298 17.6245 42.2537C17.6442 42.3775 17.6812 42.5802 17.7046 42.7041C17.728 42.8279 17.7699 43.0306 17.7982 43.1545C17.8253 43.2784 17.8696 43.4473 17.8955 43.5298C17.9214 43.6124 17.9436 43.69 17.9436 43.7025C17.9436 43.7138 17.9485 43.725 17.9534 43.7275C17.9583 43.7288 17.9756 43.7613 17.9904 43.7989C18.0052 43.8364 18.0175 43.8752 18.0175 43.8839C18.0175 43.8914 18.0261 43.9077 18.036 43.9177C18.0483 43.9302 18.0544 43.9603 18.0544 44.0053C18.0544 44.0679 18.0569 44.0741 18.0828 44.0741C18.1 44.0741 18.116 44.0854 18.1259 44.1054C18.1333 44.1229 18.1407 44.1529 18.1407 44.1742C18.1407 44.2017 18.1468 44.2117 18.1628 44.2117C18.1739 44.2117 18.1912 44.2255 18.1998 44.243C18.2072 44.2605 18.2146 44.2856 18.2146 44.2993C18.2146 44.3131 18.2232 44.3243 18.2331 44.3243C18.2429 44.3243 18.2552 44.3369 18.2602 44.3531C18.2639 44.3681 18.2749 44.3882 18.2848 44.3969C18.2934 44.4044 18.3008 44.4207 18.3008 44.4307C18.3008 44.4407 18.307 44.4495 18.3131 44.4495C18.3193 44.4495 18.3255 44.4582 18.3255 44.4682C18.3255 44.4782 18.3316 44.487 18.3378 44.487C18.3439 44.487 18.3501 44.4958 18.3501 44.5058C18.3501 44.5158 18.3562 44.5245 18.3624 44.5245C18.3686 44.5245 18.3747 44.5333 18.3747 44.5433C18.3747 44.5533 18.3809 44.5621 18.387 44.5621C18.3932 44.5621 18.3994 44.5708 18.3994 44.5808C18.3994 44.5908 18.4055 44.5996 18.4117 44.5996C18.4178 44.5996 18.424 44.6109 18.424 44.6246C18.424 44.6384 18.4326 44.6496 18.4425 44.6496C18.4523 44.6496 18.461 44.6584 18.461 44.6684C18.461 44.6784 18.4696 44.6897 18.4794 44.6934C18.4893 44.6972 18.4979 44.7085 18.4979 44.7185C18.4979 44.7285 18.5065 44.7397 18.5164 44.7435C18.5262 44.7472 18.5349 44.761 18.5349 44.7748C18.5349 44.7898 18.5447 44.8023 18.5595 44.806C18.5759 44.8102 18.5841 44.8227 18.5841 44.8436C18.5841 44.8648 18.5903 44.8749 18.6063 44.8749C18.6174 44.8749 18.6347 44.8811 18.6433 44.8899C18.6519 44.8986 18.6581 44.9212 18.6581 44.9412C18.6581 44.9674 18.6642 44.975 18.6864 44.975C18.7012 44.975 18.7236 44.9852 18.7359 44.9977C18.7532 45.014 18.7578 45.0388 18.7566 45.2127L18.853 45.213C18.9343 45.213 18.9515 45.218 18.9762 45.2417C18.9909 45.2567 19.003 45.2815 19.003 45.2978C19.003 45.3203 19.0104 45.3253 19.0436 45.329C19.0744 45.3303 19.0843 45.3378 19.0868 45.3603C19.088 45.3803 19.0966 45.3878 19.12 45.3878C19.1406 45.3878 19.1529 45.3962 19.157 45.4129C19.1607 45.4279 19.173 45.4379 19.1878 45.4379C19.2013 45.4379 19.2149 45.4466 19.2186 45.4567C19.2223 45.4667 19.2334 45.4754 19.2432 45.4754C19.2531 45.4754 19.2642 45.4842 19.2678 45.4942C19.2715 45.5042 19.2826 45.513 19.2925 45.513C19.3023 45.513 19.3134 45.5217 19.3171 45.5317C19.3208 45.5417 19.3319 45.5505 19.3418 45.5505C19.3516 45.5505 19.3602 45.5567 19.3602 45.563C19.3602 45.5705 19.3689 45.5755 19.3787 45.5755C19.3886 45.5755 19.3972 45.5818 19.3972 45.588C19.3972 45.5955 19.4058 45.6005 19.4157 45.6005C19.4255 45.6005 19.4342 45.6068 19.4342 45.6131C19.4342 45.6206 19.4428 45.6256 19.4526 45.6256C19.4625 45.6256 19.4711 45.6318 19.4711 45.6381C19.4711 45.6456 19.4797 45.6506 19.4896 45.6506C19.4994 45.6506 19.5081 45.6568 19.5081 45.6631C19.5081 45.6706 19.5216 45.6781 19.5389 45.6819C19.5561 45.6856 19.5697 45.6944 19.5697 45.7006C19.5697 45.7081 19.5783 45.7131 19.5881 45.7131C19.598 45.7131 19.614 45.7207 19.6226 45.7294C19.63 45.7382 19.6559 45.7532 19.6781 45.7632C19.7015 45.7745 19.7187 45.7907 19.7175 45.8045C19.7175 45.8195 19.7273 45.8258 19.7544 45.8258C19.7742 45.8258 19.816 45.8383 19.8468 45.8545C19.8813 45.8708 19.9023 45.8908 19.9023 45.9046C19.9023 45.9221 19.9134 45.9258 19.9577 45.9258C19.991 45.9258 20.0205 45.9334 20.0316 45.9446C20.0415 45.9546 20.0575 45.9634 20.0661 45.9634C20.0735 45.9634 20.1191 45.9784 20.1671 45.9972C20.2152 46.0159 20.2546 46.0359 20.2571 46.041C20.2583 46.0472 20.2694 46.051 20.2817 46.051C20.2928 46.051 20.3236 46.0585 20.3495 46.0672C20.3741 46.0747 20.395 46.0897 20.395 46.0985C20.395 46.1073 20.4135 46.1135 20.4443 46.1135C20.4714 46.1135 20.5367 46.1248 20.5897 46.1373C20.6414 46.1511 20.7732 46.1786 20.8816 46.1999C20.99 46.2199 21.1921 46.2537 21.3313 46.2749C21.4705 46.2949 21.7279 46.33 21.9041 46.35C22.0803 46.3713 22.3377 46.4 22.4769 46.4138C22.6161 46.4276 22.8564 46.4501 23.0128 46.4638C23.1693 46.4776 23.4464 46.4989 23.6288 46.5139C23.8111 46.5277 24.0919 46.5464 24.2509 46.5577C24.4098 46.5677 24.7375 46.5877 24.9777 46.6015C25.2179 46.614 25.5973 46.634 25.8215 46.6453C26.0457 46.6553 26.4252 46.6728 26.6654 46.6828C26.9056 46.6928 27.3281 46.7078 28.1067 46.7328L28.107 46.9271H28.0552C28.0256 46.9271 27.6832 46.9158 27.2939 46.902C26.9046 46.8883 26.4525 46.872 26.2899 46.8645C26.1273 46.857 25.8193 46.8432 25.6062 46.8332C25.3931 46.8232 25.0161 46.8032 24.7685 46.7894C24.5209 46.7757 24.192 46.7556 24.0355 46.7456L23.3457 46.6956C23.1215 46.6781 22.8147 46.6518 22.662 46.638C22.5092 46.6243 22.2518 46.5993 22.0892 46.5817C21.9265 46.5655 21.6826 46.5367 21.5471 46.5192C21.4116 46.5017 21.2071 46.4741 21.0913 46.4566C20.9755 46.4391 20.7821 46.4053 20.6602 46.3828C20.5382 46.359 20.3805 46.3227 20.3091 46.3027C20.2376 46.2815 20.1218 46.2427 20.0504 46.2164C19.9789 46.1889 19.8631 46.1401 19.7917 46.1075C19.7202 46.075 19.6069 46.0175 19.5391 45.9799C19.4714 45.9424 19.3383 45.8586 19.2435 45.7947C19.1486 45.7309 19.002 45.6196 18.917 45.5483C18.832 45.4757 18.699 45.3493 18.6214 45.2668C18.5438 45.1854 18.4378 45.0641 18.3861 45.0003C18.3343 44.9352 18.2506 44.8201 18.1988 44.7438C18.1483 44.6687 18.0695 44.5386 18.0239 44.456C17.9783 44.3734 17.9118 44.2408 17.8761 44.162C17.8403 44.0831 17.7849 43.9455 17.7529 43.8554C17.7209 43.7653 17.6765 43.6202 17.6543 43.5301C17.6322 43.44 17.5853 43.2298 17.5521 43.0609C17.5176 42.892 17.4708 42.6368 17.4461 42.4916C17.4227 42.3478 17.3882 42.1301 17.371 42.0099C17.3538 41.8898 17.3205 41.6333 17.2971 41.4407C17.2737 41.248 17.2404 40.9502 17.2232 40.7775C17.2059 40.6061 17.1813 40.3321 17.1677 40.1707C17.1542 40.0093 17.1332 39.7078 17.1185 39.5013C17.1049 39.2949 17.0864 38.9571 17.0753 38.7506C17.0655 38.5442 17.0519 38.2226 17.0445 38.0375Z" fill="#FF0000"/>
  <path d="M28.1436 46.9201L28.1436 46.7391H28.5625L28.5624 46.9389H28.4922C28.4528 46.9389 28.3579 46.9352 28.1436 46.9201Z" fill="#FF0000"/>
  <path d="M28.6118 46.9333L28.6118 46.7516H29.0552V46.9518L28.9728 46.9521C28.9259 46.9521 28.8262 46.9483 28.6118 46.9333Z" fill="#FF0000"/>
  <path d="M36.6684 46.9518L36.6685 46.852L36.6684 46.7516H37.0995L37.0996 46.9333L36.9616 46.9421C36.8853 46.9483 36.7878 46.9518 36.6684 46.9518Z" fill="#FF0000"/>
  <path d="M29.1909 46.9458V46.8557L29.1908 46.7641H29.6342V46.9643L29.5519 46.9646C29.5051 46.9646 29.4053 46.9608 29.1909 46.9458Z" fill="#FF0000"/>
  <path d="M36.1386 46.9643V46.7641H36.5821L36.5822 46.9458L36.4442 46.9545C36.3678 46.9608 36.268 46.9643 36.1386 46.9643Z" fill="#FF0000"/>
  <path d="M29.8682 46.9583V46.8682L29.8683 46.7766H30.3487V46.9768L30.2476 46.977C30.1909 46.977 30.0825 46.9733 29.8682 46.9583Z" fill="#FF0000"/>
  <path d="M35.4241 46.9768L35.4238 46.8769L35.4241 46.7766H35.8923L35.8919 46.9583L35.754 46.967C35.6776 46.9733 35.572 46.9768 35.4241 46.9768Z" fill="#FF0000"/>
  <path d="M30.792 46.9707V46.8806L30.7922 46.7892H31.3219V46.9893L31.1961 46.9895C31.1258 46.9895 31.0063 46.9857 30.792 46.9707Z" fill="#FF0000"/>
  <path d="M34.4879 46.9893L34.4883 46.8894L34.4879 46.7892H35.0053L35.0057 46.9707L34.8677 46.9795C34.7913 46.9857 34.6739 46.9893 34.4879 46.9893Z" fill="#FF0000"/>
  <path d="M31.5378 46.9987C31.5107 47.0015 31.4725 47.0015 31.4516 46.9987C31.4306 46.9959 31.454 46.9931 31.5008 46.9931C31.5477 46.9931 31.5649 46.9959 31.5378 46.9987Z" fill="#FF0000" fill-opacity="0.3"/>
  <path d="M31.7468 46.9987C31.7197 47.0015 31.6704 47.0015 31.6359 46.9987C31.6014 46.9959 31.6236 46.9945 31.6852 46.9945C31.7468 46.9945 31.7739 46.9959 31.7468 46.9987Z" fill="#FF0000" fill-opacity="0.4"/>
  <path d="M31.9562 46.9987C31.9291 47.0015 31.8799 47.0015 31.8454 46.9987C31.8109 46.9959 31.8331 46.9945 31.8946 46.9945C31.9562 46.9945 31.9833 46.9959 31.9562 46.9987Z" fill="#FF0000" fill-opacity="0.4"/>
  <path d="M32.1657 46.9987C32.1386 47.0015 32.0893 47.0015 32.0548 46.9987C32.0204 46.9959 32.0425 46.9945 32.1041 46.9945C32.1657 46.9945 32.1928 46.9959 32.1657 46.9987Z" fill="#FF0000" fill-opacity="0.5"/>
  <path d="M33.2437 46.9986C33.0503 47.0015 32.7374 47.0015 32.5477 46.9986C32.358 46.9972 32.5156 46.9958 32.8988 46.9958C33.2819 46.9958 33.4371 46.9972 33.2437 46.9986Z" fill="#FF0000" fill-opacity="0.6"/>
  <path d="M33.755 46.9987C33.7217 47.0015 33.6688 47.0015 33.638 46.9987C33.6072 46.9959 33.6355 46.9945 33.6996 46.9945C33.7636 46.9945 33.7895 46.9959 33.755 46.9987Z" fill="#FF0000" fill-opacity="0.5"/>
  <path d="M33.9767 46.9987C33.9434 47.0015 33.8904 47.0015 33.8596 46.9987C33.8289 46.9959 33.8572 46.9945 33.9212 46.9945C33.9853 46.9945 34.0112 46.9959 33.9767 46.9987Z" fill="#FF0000" fill-opacity="0.4"/>
  <path d="M34.1984 46.9987C34.1713 47.0015 34.1221 47.0015 34.0876 46.9987C34.0531 46.9959 34.0752 46.9945 34.1368 46.9945C34.1972 46.9945 34.2255 46.9959 34.1984 46.9987Z" fill="#FF0000" fill-opacity="0.4"/>
  <defs>
    <linearGradient id="paint0_linear_56_15" x1="49" y1="10.5" x2="0.999999" y2="55.5" gradientUnits="userSpaceOnUse">
      <stop stop-color="#00F6BE" stop-opacity="0.35"/>
      <stop offset="1" stop-color="#05F7BB" stop-opacity="0.6"/>
    </linearGradient>
    <radialGradient id="paint1_angular_56_15" cx="0" cy="0" r="1" gradientUnits="userSpaceOnUse" gradientTransform="translate(32.5 36.25) rotate(-90.8013) scale(35.7535 31.9499)">
      <stop stop-color="#00A896" stop-opacity="0.83"/>
      <stop offset="1" stop-color="#157F74" stop-opacity="0"/>
    </radialGradient>
  </defs>
</svg>